# Wavefront Obj file
# 
# verts: 56 uv-s: 146
mtllib caja.mtl

g cajua

v 16.671356 0.402364 -0.310219
v 16.717775 0.461682 -0.295616
v 17.378319 1.143484 -0.087813
v 17.331900 1.093574 -0.102416
v 16.671356 1.143484 -0.310219
v 16.717775 1.093574 -0.295616
v 17.345289 1.143484 -0.144979
v 16.731165 1.143484 -0.338179
v 17.600723 1.143484 -0.794774
v 17.540821 1.143484 -0.766514
v 16.893763 1.143484 -1.017181
v 16.926697 1.143484 -0.959713
v 17.600723 0.402364 -0.794774
v 17.588570 0.442868 -0.756137
v 17.391708 0.442868 -0.130376
v 17.588570 1.093574 -0.756137
v 17.391708 1.093574 -0.130376
v 16.893763 0.402364 -1.017181
v 16.940182 0.442868 -1.002577
v 17.554306 0.442868 -0.809378
v 16.940182 1.093574 -1.002577
v 17.554306 1.093574 -0.809378
v 16.684746 0.461682 -0.352782
v 16.878387 0.461682 -0.968309
v 16.684746 1.093574 -0.352782
v 16.878387 1.093574 -0.968309
v 16.927635 0.402364 -0.962698
v 16.731165 0.402364 -0.338179
v 17.541759 0.402364 -0.769498
v 17.345289 0.402364 -0.144979
v 17.378319 0.402364 -0.087813
v 17.331900 0.461682 -0.102416
v 16.731165 1.110856 -0.338179
v 17.345289 1.110856 -0.144979
v 17.540821 1.110856 -0.766514
v 16.926697 1.110856 -0.959713
v 17.544514 0.442868 -0.778253
v 16.930389 0.442868 -0.971453
v 16.930389 1.093574 -0.971453
v 17.544514 1.093574 -0.778253
v 16.909512 0.461682 -0.958517
v 16.715870 0.461682 -0.342990
v 16.715870 1.093574 -0.342990
v 16.909512 1.093574 -0.958517
v 16.727568 0.461682 -0.326740
v 17.341690 0.461682 -0.133540
v 17.341690 1.093574 -0.133540
v 16.727568 1.093574 -0.326740
v 17.360584 0.442868 -0.140167
v 17.557446 0.442868 -0.765929
v 17.557446 1.093574 -0.765929
v 17.360584 1.093574 -0.140167
v 16.731165 0.434992 -0.338179
v 16.927635 0.434992 -0.962698
v 17.541759 0.434992 -0.769498
v 17.345289 0.434992 -0.144979
# 56 positions

vt 0.003122 0.093139
vt 0.318047 0.094968
vt 0.297222 0.120054
vt 0.023653 0.118465
vt 0.320075 0.328399
vt 0.006682 0.359484
vt 0.025166 0.336338
vt 0.297404 0.309334
vt 0.634887 0.626464
vt 0.319956 0.626327
vt 0.345172 0.605660
vt 0.613687 0.605777
vt 0.301369 0.349308
vt 0.029131 0.376311
vt 0.475315 0.992174
vt 0.470708 0.677277
vt 0.491663 0.696067
vt 0.495713 0.972913
vt 0.322349 0.449846
vt 0.007441 0.446132
vt 0.028343 0.427282
vt 0.301897 0.430509
vt 0.383576 0.679210
vt 0.381440 0.994133
vt 0.360891 0.975033
vt 0.362769 0.698164
vt 0.007607 0.664385
vt 0.322496 0.659288
vt 0.305565 0.676776
vt 0.026843 0.681287
vt 0.978816 0.093117
vt 0.651515 0.080140
vt 0.674266 0.063127
vt 0.961638 0.074520
vt 0.453831 0.973525
vt 0.449753 0.694797
vt 0.568869 0.998792
vt 0.564144 0.683895
vt 0.583360 0.700820
vt 0.587504 0.977298
vt 0.319123 0.220781
vt 0.004622 0.237220
vt 0.024373 0.218952
vt 0.297574 0.204672
vt 0.664170 0.995802
vt 0.659386 0.680908
vt 0.680384 0.701800
vt 0.684584 0.978278
vt 0.301422 0.470810
vt 0.027867 0.467583
vt 0.960076 0.113898
vt 0.672704 0.102505
vt 0.317627 0.556653
vt 0.002805 0.564919
vt 0.021097 0.539223
vt 0.295202 0.532026
vt 0.613669 0.645416
vt 0.345154 0.645299
vt 0.404637 0.701125
vt 0.402777 0.975317
vt 0.642018 0.970929
vt 0.637939 0.702446
vt 0.300410 0.577790
vt 0.022301 0.585092
vt 0.299400 0.239601
vt 0.026199 0.253882
vt 0.322496 0.653516
vt 0.007607 0.658612
vt 0.026230 0.637630
vt 0.304398 0.633128
vt 0.023910 0.074299
vt 0.297479 0.075887
vt 0.547882 0.977897
vt 0.543845 0.709409
vt 0.593354 0.579420
vt 0.335795 0.582285
vt 0.332964 0.327797
vt 0.590524 0.324932
vt 0.712255 0.726539
vt 0.712255 0.450029
vt 0.985828 0.450029
vt 0.985828 0.726539
vt 0.986453 0.730985
vt 0.986453 0.999500
vt 0.712255 0.999500
vt 0.712255 0.730985
vt 0.013690 0.990809
vt 0.013690 0.688065
vt 0.322139 0.688065
vt 0.322139 0.990809
vt 0.621512 0.024888
vt 0.621512 0.308302
vt 0.335793 0.308302
vt 0.335793 0.024888
vt 0.335793 0.024888
vt 0.621512 0.024888
vt 0.707572 0.447328
vt 0.708524 0.173756
vt 0.986727 0.174725
vt 0.985775 0.448297
vt 0.302738 0.363105
vt 0.030500 0.390109
vt 0.505526 0.695864
vt 0.509577 0.972710
vt 0.028506 0.413418
vt 0.302061 0.416645
vt 0.347026 0.974939
vt 0.348904 0.698070
vt 0.023650 0.205106
vt 0.296851 0.190826
vt 0.694248 0.701589
vt 0.698447 0.978068
vt 0.301259 0.484674
vt 0.027704 0.481447
vt 0.959505 0.128308
vt 0.672133 0.116914
vt 0.020733 0.525363
vt 0.294838 0.518166
vt 0.613663 0.659281
vt 0.345148 0.659164
vt 0.418501 0.701218
vt 0.416641 0.975411
vt 0.628155 0.971140
vt 0.624075 0.702657
vt 0.297142 0.133918
vt 0.023573 0.132330
vt 0.534017 0.978106
vt 0.529981 0.709617
vt 0.023798 0.322541
vt 0.296036 0.295537
vt 0.345178 0.591795
vt 0.613693 0.591912
vt 0.674837 0.048717
vt 0.962209 0.060110
vt 0.439967 0.973728
vt 0.435889 0.695000
vt 0.597219 0.700611
vt 0.601366 0.977089
vt 0.300774 0.591650
vt 0.022665 0.598952
vt 0.300123 0.253447
vt 0.026923 0.267728
vt 0.026006 0.623767
vt 0.304174 0.619265
vt 0.023990 0.060434
vt 0.297559 0.062023
# 146 texture coordinates

vn -0.300097 -0.000002 0.953909
vn -0.300091 -0.000002 0.953911
vn -0.300091 -0.000002 0.953911
vn -0.300097 -0.000002 0.953909
vn -0.300091 0.000003 0.953911
vn -0.300097 0.000003 0.953909
vn -0.300097 0.000003 0.953909
vn -0.300091 0.000003 0.953911
vn 0.000000 1.000000 0.000000
vn 0.000000 1.000000 0.000000
vn 0.000000 1.000000 0.000000
vn 0.000000 1.000000 0.000000
vn 0.000000 1.000000 0.000000
vn 0.000000 1.000000 0.000000
vn 0.000000 1.000000 0.000000
vn 0.000000 1.000000 0.000000
vn 0.953911 -0.000005 0.300089
vn 0.953914 -0.000005 0.300079
vn 0.953914 -0.000005 0.300079
vn 0.953911 -0.000005 0.300089
vn 0.953914 0.000004 0.300079
vn 0.953914 0.000004 0.300079
vn 0.953911 0.000004 0.300089
vn 0.953911 0.000004 0.300089
vn 0.300100 -0.000002 -0.953908
vn 0.300096 -0.000002 -0.953909
vn 0.300096 -0.000002 -0.953909
vn 0.300100 -0.000002 -0.953908
vn 0.300096 0.000002 -0.953909
vn 0.300096 0.000002 -0.953909
vn 0.300100 0.000002 -0.953908
vn 0.300100 0.000002 -0.953908
vn -0.953909 -0.000003 -0.300097
vn -0.953911 -0.000003 -0.300090
vn -0.953911 -0.000003 -0.300090
vn -0.953909 -0.000003 -0.300097
vn -0.953911 0.000004 -0.300090
vn -0.953911 0.000004 -0.300090
vn -0.953909 0.000004 -0.300097
vn -0.953909 0.000004 -0.300097
vn 0.000000 -1.000000 0.000000
vn 0.000000 -1.000000 0.000000
vn 0.000000 -1.000000 0.000000
vn 0.000000 -1.000000 0.000000
vn 0.000000 -1.000000 0.000000
vn 0.000000 -1.000000 0.000000
vn 0.000000 -1.000000 0.000000
vn 0.000000 -1.000000 0.000000
vn 0.000000 1.000000 0.000000
vn 0.000000 1.000000 0.000000
vn 0.000000 1.000000 0.000000
vn 0.000000 1.000000 0.000000
vn 0.300094 0.000000 -0.953910
vn 0.300094 0.000000 -0.953910
vn 0.300094 0.000000 -0.953910
vn 0.300094 0.000000 -0.953910
vn -0.953909 0.000000 -0.300095
vn -0.953909 0.000000 -0.300095
vn -0.953909 0.000000 -0.300095
vn -0.953909 0.000000 -0.300095
vn -0.300095 0.000000 0.953909
vn -0.300095 0.000000 0.953909
vn -0.300095 0.000000 0.953909
vn -0.300095 0.000000 0.953909
vn 0.952712 0.050080 0.299718
vn 0.952712 0.050080 0.299718
vn 0.952712 0.050080 0.299718
vn 0.952712 0.050080 0.299718
vn 0.952712 0.050080 0.299718
vn 0.952712 0.050080 0.299718
vn 0.000000 -1.000000 0.000000
vn 0.000000 -1.000000 0.000000
vn 0.000000 -1.000000 0.000000
vn 0.000000 -1.000000 0.000000
vn 0.300094 0.000000 -0.953910
vn 0.300094 0.000000 -0.953910
vn 0.300094 0.000000 -0.953910
vn 0.300094 0.000000 -0.953910
vn -0.953909 0.000000 -0.300095
vn -0.953909 0.000000 -0.300095
vn -0.953909 0.000000 -0.300095
vn -0.953909 0.000000 -0.300095
vn -0.300094 0.000000 0.953910
vn -0.300094 0.000000 0.953910
vn -0.300094 0.000000 0.953910
vn -0.300094 0.000000 0.953910
vn 0.953909 0.000000 0.300095
vn 0.953909 0.000000 0.300095
vn 0.953909 0.000000 0.300095
vn 0.953909 0.000000 0.300095
vn 0.000000 1.000000 0.000000
vn 0.000000 1.000000 0.000000
vn 0.000000 1.000000 0.000000
vn 0.000000 1.000000 0.000000
vn 0.953903 0.000000 0.300115
vn 0.953903 0.000000 0.300115
vn 0.953903 0.000000 0.300115
vn 0.953903 0.000000 0.300115
vn 0.000000 -1.000000 0.000000
vn 0.000000 -1.000000 0.000000
vn 0.000000 -1.000000 0.000000
vn 0.000000 -1.000000 0.000000
vn -0.953903 0.000000 -0.300115
vn -0.953903 0.000000 -0.300115
vn -0.953903 0.000000 -0.300115
vn -0.953903 0.000000 -0.300115
vn 0.000000 1.000000 0.000000
vn 0.000000 1.000000 0.000000
vn 0.000000 1.000000 0.000000
vn 0.000000 1.000000 0.000000
vn 0.300099 0.000000 -0.953908
vn 0.300099 0.000000 -0.953908
vn 0.300099 0.000000 -0.953908
vn 0.300099 0.000000 -0.953908
vn 0.000000 -1.000000 0.000000
vn 0.000000 -1.000000 0.000000
vn 0.000000 -1.000000 0.000000
vn 0.000000 -1.000000 0.000000
vn -0.300102 0.000000 0.953907
vn -0.300102 0.000000 0.953907
vn -0.300102 0.000000 0.953907
vn -0.300102 0.000000 0.953907
vn 0.000000 1.000000 0.000000
vn 0.000000 1.000000 0.000000
vn 0.000000 1.000000 0.000000
vn 0.000000 1.000000 0.000000
vn -0.953920 0.000000 -0.300062
vn -0.953920 0.000000 -0.300062
vn -0.953920 0.000000 -0.300062
vn -0.953920 0.000000 -0.300062
vn 0.000000 -1.000000 0.000000
vn 0.000000 -1.000000 0.000000
vn 0.000000 -1.000000 0.000000
vn 0.000000 -1.000000 0.000000
vn 0.953903 0.000000 0.300115
vn 0.953903 0.000000 0.300115
vn 0.953903 0.000000 0.300115
vn 0.953903 0.000000 0.300115
vn -0.300102 0.000000 0.953907
vn -0.300102 0.000000 0.953907
vn -0.300102 0.000000 0.953907
vn -0.300102 0.000000 0.953907
vn 0.000000 -1.000000 0.000000
vn 0.000000 -1.000000 0.000000
vn 0.000000 -1.000000 0.000000
vn 0.000000 -1.000000 0.000000
vn 0.300097 0.000000 -0.953909
vn 0.300097 0.000000 -0.953909
vn 0.300097 0.000000 -0.953909
vn 0.300097 0.000000 -0.953909
vn 0.953909 0.000000 0.300095
vn 0.953909 0.000000 0.300095
vn 0.953909 0.000000 0.300095
vn 0.953909 0.000000 0.300095
vn -0.300094 0.000000 0.953910
vn -0.300094 0.000000 0.953910
vn -0.300094 0.000000 0.953910
vn -0.300094 0.000000 0.953910
vn -0.953909 0.000000 -0.300095
vn -0.953909 0.000000 -0.300095
vn -0.953909 0.000000 -0.300095
vn -0.953909 0.000000 -0.300095
vn 0.300094 0.000000 -0.953910
vn 0.300094 0.000000 -0.953910
vn 0.300094 0.000000 -0.953910
vn 0.300094 0.000000 -0.953910
# 166 normals

usemtl 
s 1
f 1/1/1 31/2/2 32/3/3 2/4/4
f 3/5/5 5/6/6 6/7/7 4/8/8
f 5/9/6 1/10/1 2/11/4 6/12/7
f 3/37/5 4/73/8 32/74/3 31/38/2
s 2
f 5/6/9 3/5/10 7/13/11 8/14/12
f 3/15/10 9/16/13 10/17/14 7/18/11
f 9/19/13 11/20/15 12/21/16 10/22/14
f 11/23/15 5/24/9 8/25/12 12/26/16
s 3
f 31/27/17 13/28/18 14/29/19 15/30/20
f 13/31/18 9/32/21 16/33/22 14/34/19
f 9/16/21 3/15/23 17/35/24 16/36/22
f 3/37/23 31/38/17 15/39/20 17/40/24
s 4
f 13/41/25 18/42/26 19/43/27 20/44/28
f 18/45/26 11/46/29 21/47/30 19/48/27
f 11/20/29 9/19/31 22/49/32 21/50/30
f 9/32/31 13/31/25 20/51/28 22/52/32
s 5
f 18/53/33 1/54/34 23/55/35 24/56/36
f 1/10/34 5/9/37 25/57/38 23/58/35
f 5/24/37 11/23/39 26/59/40 25/60/38
f 11/46/39 18/45/33 24/61/36 26/62/40
s 6
f 1/54/41 18/53/42 27/63/43 28/64/44
f 18/42/42 13/41/45 29/65/46 27/66/43
f 13/67/45 31/68/47 30/69/48 29/70/46
f 31/2/47 1/1/41 28/71/44 30/72/48
s 7
f 36/75/49 33/76/50 34/77/51 35/78/52
s 8
f 40/79/53 37/80/54 38/81/55 39/82/56
s 9
f 44/83/57 41/84/58 42/85/59 43/86/60
s 10
f 46/87/61 47/88/62 48/89/63 45/90/64
s 11
f 50/91/65 51/92/66 52/93/67 49/94/68 15/95/69 14/96/70
s 12
f 56/97/71 53/98/72 54/99/73 55/100/74
s 13
f 8/14/75 7/13/76 34/101/77 33/102/78
s 14
f 7/18/79 10/17/80 35/103/81 34/104/82
s 15
f 10/22/83 12/21/84 36/105/85 35/106/86
s 16
f 12/26/87 8/25/88 33/107/89 36/108/90
s 17
f 20/44/91 19/43/92 38/109/93 37/110/94
s 18
f 19/48/95 21/47/96 39/111/97 38/112/98
s 19
f 21/50/99 22/49/100 40/113/101 39/114/102
s 20
f 22/52/103 20/51/104 37/115/105 40/116/106
s 21
f 24/56/107 23/55/108 42/117/109 41/118/110
s 22
f 23/58/111 25/57/112 43/119/113 42/120/114
s 23
f 25/60/115 26/59/116 44/121/117 43/122/118
s 24
f 26/62/119 24/61/120 41/123/121 44/124/122
s 25
f 2/4/123 32/3/124 46/125/125 45/126/126
s 26
f 32/74/127 4/73/128 47/127/129 46/128/130
s 27
f 4/8/131 6/7/132 48/129/133 47/130/134
s 28
f 6/12/135 2/11/136 45/131/137 48/132/138
s 29
f 14/34/139 16/33/140 51/133/141 50/134/142
s 30
f 16/36/143 17/35/144 52/135/145 51/136/146
s 31
f 17/40/147 15/39/148 49/137/149 52/138/150
s 32
f 28/64/151 27/63/152 54/139/153 53/140/154
s 33
f 27/66/155 29/65/156 55/141/157 54/142/158
s 34
f 29/70/159 30/69/160 56/143/161 55/144/162
s 35
f 30/72/163 28/71/164 53/145/165 56/146/166

# 53 faces
